<svg xmlns="http://www.w3.org/2000/svg" viewBox="0 0 617.24 415.68">
<style>
    path, circle { fill: #000; }
    @media (prefers-color-scheme: dark) {
        path, circle { fill: #FFF; }
    }
</style>
<path d="M475.14,323.66c-.53.45-1.06.91-1.61,1.34-32.54,25.42-66.82,39.65-101.95,42.32l-3.66.51-2,.29a441.88,441.88,0,0,1-62.17,4.45c-2.64,0-5.31,0-8-.07H294.3c-25,0-50.53-3.17-78-9.69l-.93-.22L213,362l-1-.84a194.5,194.5,0,0,1-50.35-21.62A117.37,117.37,0,0,1,139,321.66,166,166,0,0,0,138,341.23v.24a47.27,47.27,0,0,0,12.25,29c6.84,7.73,16.32,14.3,29,20.1,21,9.65,50.06,16.79,91.4,22.5a271.91,271.91,0,0,0,37.07,2.56c7.72,0,15.51-.34,23.15-1C394.88,409,437.13,396,460,374.89a51.37,51.37,0,0,0,16.21-39.7A114.59,114.59,0,0,0,475.14,323.66Z"/>
<circle cx="31.21" cy="287.58" r="31.21"/>
<circle cx="210.24" cy="113.38" r="31.19"/>
<path d="M210.24,154.57A41.18,41.18,0,0,1,171.57,99.2,109.27,109.27,0,0,0,123.43,88c-1.51,0-3,0-4.53.1C83.56,90,56.8,103.34,39.31,127.81,22.47,151.38,14.91,184.4,16.84,226V226l.06.87c.54,8.78,1,15.68,1.85,21.4a41.06,41.06,0,0,1,12.46-1.93,40,40,0,0,1,5.39.37C45.35,221.69,56.37,200,93,200h1.36c6.55.52,13.94,9.66,20.85,25.76,7.08,16.53,13.78,40.71,19.36,69.92l0,.13,0,.12c3,11.5,14.45,24,32.35,35.14a176.33,176.33,0,0,0,34.62,16.34c-3.47-7.8-5.76-18.32-7.13-32.27A151.83,151.83,0,0,1,198.31,263c7.84-31.1,22-62.49,34.47-90.19,1.48-3.3,3-6.57,4.41-9.82q-4.87-6.32-9.63-12.23A41,41,0,0,1,210.24,154.57Z"/>
<path d="M585.9,253.55a31.34,31.34,0,1,0,31.34,31.34A31.37,31.37,0,0,0,585.9,253.55Z"/>
<path d="M566.89,216.26c4.84,6.89,8.84,16.23,12,27.91a41,41,0,0,1,22.72,2.47A244.65,244.65,0,0,0,605,204.06v-.34c-3-35.82-14.43-65.6-33-86.12s-43.65-31.33-72.7-31.44h-.14c-27.2.84-50.58,9-71.48,25a168.19,168.19,0,0,0-27.1,26.63,422.45,422.45,0,0,1,4.75,97.07c-3.91,53.39-12.48,92.25-26.87,121.69,30.49-3.88,60.34-17.1,88.92-39.44a45.12,45.12,0,0,0,13.75-17.88c4.59-10.82,7.77-23.36,10.84-35.49,8-31.4,15.49-61.06,45.47-63.15h.28C549.92,200.6,559.47,205.72,566.89,216.26Z"/>
<path d="M392.1,148.54q-.57-4-1.22-8a2,2,0,0,0,0-.24q-.6-3.71-1.28-7.38l-.15-.85c-.41-2.23-.85-4.44-1.3-6.64-.09-.45-.17-.89-.26-1.34q-.8-3.83-1.67-7.61v0a310.93,310.93,0,0,0-10.34-35.52c-.4-1.09-.8-2.18-1.2-3.25A217.22,217.22,0,0,0,364,53.78a137.24,137.24,0,0,0-20.75-30.16C328.68,8,312.11,0,294,0c-25.23,0-47.24,10.58-63.65,30.61-9.28,11.32-16.6,25.6-21.49,41.62.45,0,.9,0,1.35,0a41,41,0,0,1,19.74,5c6.93-7.26,14.16-12.39,21.14-12.66a22.62,22.62,0,0,1,11,5.76,22.9,22.9,0,0,1,4.76,6.85,31.39,31.39,0,0,1,1.63,4.35,48,48,0,0,1,1.78,10.57c0,.67,0,1.35,0,2,0,.23,0,.46,0,.7,0,.46,0,.91-.08,1.38,0,.28,0,.56-.07.85s-.07.84-.12,1.27-.07.62-.11.93-.09.82-.15,1.24-.09.66-.14,1l-.18,1.22-.18,1c-.07.41-.14.81-.22,1.22s-.13.71-.2,1.07-.16.82-.25,1.23l-.24,1.09c-.09.41-.18.83-.28,1.24s-.17.75-.26,1.12-.21.84-.31,1.26l-.3,1.13c-.11.43-.22.85-.34,1.28l-.31,1.15c-.12.43-.25.86-.37,1.29s-.23.79-.35,1.19-.26.86-.39,1.29-.24.8-.37,1.21l-.42,1.31-.39,1.22c-.15.44-.3.88-.44,1.33l-.42,1.23c-.15.45-.31.91-.47,1.36s-.28.82-.43,1.23-.33.92-.5,1.38l-.45,1.25-.51,1.39-.47,1.26-.54,1.41c-.16.42-.32.85-.49,1.28l-.54,1.38c-.36.91-.72,1.83-1.09,2.75-.16.41-.32.81-.49,1.22l-.63,1.55-.49,1.21-.64,1.53-.51,1.24-.66,1.56c-.17.41-.34.82-.52,1.23l-.68,1.61c-.17.4-.34.79-.52,1.19s-.47,1.11-.71,1.66l-.51,1.16c-.24.57-.49,1.13-.73,1.69l-.51,1.16c-.25.57-.5,1.15-.76,1.72-.16.37-.32.75-.49,1.12l-.81,1.83-.44,1-.87,2-.38.83-1,2.19-.24.52c-1.1,2.46-2.22,4.94-3.34,7.43-12.31,27.31-26.26,58.27-33.89,88.51a142.23,142.23,0,0,0-3.57,48.77c2,20.32,5.94,32.38,12.4,37.95h0l.11.1.42.36.31.26.1,0,.83.2c9.79,2.32,19.31,4.2,28.64,5.66,1.81.28,3.62.56,5.42.81q4.74.66,9.42,1.17t9.31.88q9.27.72,18.36.87l4.55,0h1.53c2.62.05,5.28.07,7.89.07,12.52,0,25-.55,37.66-1.69,7.61-.68,15.29-1.57,23.12-2.67l2-.28.17-.33.78-1.49c15-28.66,23.87-67.42,27.86-122A410.47,410.47,0,0,0,392.1,148.54Z"/>
</svg>